<svg width="470" height="107" viewBox="0 0 470 107" fill="none" xmlns="http://www.w3.org/2000/svg">
<path d="M177.011 33.8578L163.245 65.7592L160.63 71.8417L157.973 65.7698L143.994 33.8685L126.401 33.9748L160.354 103.413L195.54 33.8578H177.011Z" fill="white"/>
<path d="M274.277 53.4559C272.172 48.8834 269.185 44.8 265.39 41.3228C261.552 37.8562 257.162 35.1977 252.357 33.4644C247.351 31.6141 242.152 30.6677 236.89 30.6677C231.682 30.6677 226.515 31.6035 221.519 33.4538C216.661 35.2828 212.26 37.9625 208.455 41.4078C204.713 44.7894 201.726 48.8409 199.578 53.4559C197.452 58.0391 196.368 63.0583 196.368 68.3964C196.368 75.5104 198.228 82.0077 201.906 87.7287C205.574 93.4603 210.591 98.0328 216.831 101.34C223.092 104.658 229.843 106.338 236.89 106.338C242.28 106.338 247.457 105.381 252.283 103.499C257.098 101.691 261.499 99.0111 265.411 95.5126C269.227 92.0141 272.246 87.9094 274.341 83.3475C276.435 78.8494 277.487 73.8303 277.487 68.3964C277.487 63.0689 276.413 58.0391 274.277 53.4559ZM252.814 84.1025C248.392 88.4199 243.024 90.6104 236.89 90.6104C230.799 90.6104 225.463 88.4199 221.03 84.0919C216.523 79.7533 214.238 74.4683 214.238 68.3964C214.238 64.4088 215.311 60.6763 217.416 57.3054C219.489 53.9983 222.306 51.3185 225.771 49.3619C229.258 47.3947 233 46.3951 236.89 46.3951C240.887 46.3951 244.661 47.3947 248.095 49.3726C251.549 51.3185 254.356 53.9983 256.439 57.3054C258.555 60.6763 259.618 64.4088 259.618 68.3964C259.618 74.4683 257.332 79.7533 252.814 84.1025Z" fill="white"/>
<path d="M323.442 67.7265L324.728 66.0038L348.699 33.9216L330.384 33.8685L316.501 53.6792L314.066 57.1565L311.738 53.6048L298.812 33.8685L279.954 33.9748L302.713 65.7592L303.904 67.4181L302.724 69.0982L278.094 103.945L296.144 103.892L310.909 83.1667L313.354 79.7427L315.661 83.2518L329.246 103.881L350.209 103.775L324.718 69.4491L323.442 67.7265Z" fill="white"/>
<path d="M374.743 1.22289C373.329 0.404084 371.767 0 369.992 0C368.227 0 366.696 0.404084 365.314 1.22289C363.879 2.07359 362.731 3.23267 361.774 4.77457C360.977 6.15697 360.573 7.72014 360.573 9.48535C360.573 11.208 361.009 12.8031 361.891 14.345C362.731 15.8018 363.858 16.9503 365.336 17.8329C366.696 18.641 368.227 19.0451 369.992 19.0451C371.746 19.0451 373.287 18.6198 374.722 17.7584C376.2 16.8652 377.326 15.7274 378.177 14.3025C378.995 12.9201 379.399 11.3356 379.399 9.47471C379.399 7.7095 378.995 6.1357 378.156 4.6895C377.284 3.21141 376.157 2.06296 374.743 1.22289Z" fill="white"/>
<path d="M361.466 104.041H379.336V33.8685L361.466 33.9216V104.041Z" fill="white"/>
<path d="M446.391 34.2833L444.775 33.5815C439.81 31.795 434.665 30.8911 429.467 30.8911C424.195 30.8911 418.997 31.8057 414 33.6134C409.217 35.3892 404.816 38.069 400.957 41.5568C397.162 44.9809 394.186 49.0324 392.092 53.5943C389.955 58.1881 388.871 63.186 388.871 68.471C388.871 73.9049 389.923 78.924 392.006 83.4115C394.111 87.9308 397.12 92.0142 400.968 95.5446C404.858 99.0644 409.249 101.744 414.011 103.477C418.901 105.381 424.078 106.338 429.467 106.338C436.515 106.338 443.265 104.658 449.526 101.34C455.777 98.0755 460.784 93.5242 464.451 87.8139C468.087 82.2205 469.947 75.8827 470 68.9708V4.06207L452.131 4.0089V32.3799V36.7716L448.102 35.0171L446.391 34.2833ZM452.12 68.471C452.12 74.5429 449.835 79.8279 445.317 84.1771C440.895 88.4944 435.558 90.685 429.467 90.685C423.334 90.685 417.976 88.4944 413.533 84.1558C409.025 79.8172 406.74 74.5322 406.74 68.4603C406.74 64.462 407.814 60.7508 409.929 57.4225C411.991 54.1366 414.808 51.4569 418.274 49.5003C421.76 47.533 425.523 46.5335 429.467 46.5335C433.422 46.5335 437.164 47.533 440.608 49.5109C444.062 51.4569 446.869 54.126 448.942 57.4437C451.047 60.7615 452.12 64.4727 452.12 68.471Z" fill="white"/>
<path d="M80.5207 46.6826L74.0363 40.196L41.6036 7.75232C38.0212 4.16873 32.2171 4.16873 28.6347 7.75232L28.6241 7.76295C27.2422 9.13471 26.4024 10.8468 26.0835 12.6332C28.6135 13.3138 30.9309 14.6324 32.8337 16.5252L58.7819 42.4823C61.6415 45.3428 63.2147 49.1391 63.2147 53.1799C63.2147 57.2207 61.6415 61.017 58.7819 63.8775L32.8443 89.824C30.9415 91.7274 28.6241 93.046 26.0941 93.7159C26.413 95.5024 27.2528 97.2038 28.6347 98.5862C32.2171 102.17 38.0212 102.17 41.6036 98.5862L61.0568 79.1157L74.0256 66.1425L80.5207 59.6452C84.103 56.0723 84.103 50.2662 80.5207 46.6826Z" fill="white"/>
<path d="M54.5725 59.6665C58.1548 56.0829 58.1548 50.2769 54.5725 46.6933L28.6242 20.7362C26.4237 18.535 23.3729 17.6843 20.524 18.1947C18.7381 18.5137 17.0373 19.3538 15.6554 20.7362C14.2841 22.108 13.4337 23.82 13.1147 25.6065C15.6447 26.287 17.9621 27.6056 19.8649 29.4985L32.8444 42.4717C35.7039 45.3322 37.2772 49.1284 37.2772 53.1693C37.2772 55.5193 36.7244 57.7843 35.7251 59.8367C35.6507 59.9855 35.587 60.1451 35.5125 60.2939C35.4807 60.3577 35.4381 60.4109 35.4062 60.4747C34.7259 61.6976 33.8755 62.846 32.855 63.8669L19.8649 76.8401C17.9302 78.7755 15.5916 80.0621 13.1147 80.7321C13.4337 82.5186 14.2734 84.2306 15.6554 85.6024L15.666 85.613C17.0373 86.9848 18.7487 87.8355 20.5346 88.1545C23.3835 88.6649 26.4344 87.8248 28.6348 85.613L54.5725 59.6665Z" fill="white"/>
<path d="M28.6351 59.6562C32.2174 56.0726 32.2174 50.2665 28.6351 46.6829L15.6556 33.6991C13.4552 31.4979 10.4043 30.6472 7.5554 31.1576C5.76953 31.4766 4.0687 32.3167 2.68678 33.6991V33.7097C-0.895593 37.2933 -0.895593 43.0994 2.68678 46.6829L2.69741 46.6936C6.27978 50.2772 6.27978 56.0832 2.69741 59.6668C-0.884963 63.2504 -0.884963 69.0564 2.69741 72.64C4.07933 74.0118 5.78016 74.8625 7.56603 75.1815C10.4149 75.6919 13.4658 74.8519 15.6662 72.64L28.6351 59.6562Z" fill="white"/>
</svg>
